<svg width="31" height="31" viewBox="0 0 31 31" fill="none" xmlns="http://www.w3.org/2000/svg">
<g clip-path="url(#clip0_2794_1005)">
<path d="M15.4993 0C12.4338 0 9.43721 0.909019 6.88837 2.61211C4.33952 4.31519 2.35293 6.73586 1.17982 9.56799C0.00671555 12.4001 -0.300223 15.5165 0.297822 18.5231C0.895867 21.5297 2.37203 24.2914 4.53965 26.459C6.70727 28.6266 9.46898 30.1028 12.4756 30.7008C15.4821 31.2989 18.5985 30.9919 21.4307 29.8188C24.2628 28.6457 26.6834 26.6591 28.3865 24.1103C30.0896 21.5614 30.9986 18.5648 30.9986 15.4993C30.9943 11.39 29.36 7.45017 26.4542 4.54442C23.5485 1.63867 19.6087 0.00432601 15.4993 0ZM28.565 15.4993C28.565 18.0835 27.7987 20.6096 26.363 22.7582C24.9274 24.9069 22.8868 26.5815 20.4993 27.5704C18.1119 28.5593 15.4848 28.8181 12.9503 28.3139C10.4158 27.8098 8.08776 26.5654 6.2605 24.7381C4.43323 22.9109 3.18884 20.5828 2.6847 18.0483C2.18056 15.5138 2.4393 12.8867 3.42821 10.4993C4.41712 8.11186 6.09178 6.07128 8.24042 4.6356C10.3891 3.19993 12.9152 2.43364 15.4993 2.43364C18.9633 2.43761 22.2843 3.81544 24.7338 6.26487C27.1832 8.7143 28.561 12.0353 28.565 15.4993Z" fill="#366C7F"/>
<path d="M22.3196 19.4773L19.4393 18.1155C18.8673 17.8431 18.5963 18.268 18.5963 18.268L17.3161 19.8532C17.2431 19.9179 17.1542 19.9622 17.0586 19.9816C16.9629 20.0009 16.8638 19.9947 16.7714 19.9635C13.0944 18.6016 11.4274 15.3904 11.4274 15.3904C11.1551 15.0091 11.5037 14.6659 11.5037 14.6659C11.8096 14.3569 12.0876 14.0215 12.3344 13.6635C12.7294 13.0861 12.5169 12.6735 12.5169 12.6735C12.5169 12.6735 11.5718 10.4196 11.2913 9.77952C11.0107 9.13945 10.4959 9.17894 10.4959 9.17894H9.74963C9.3794 9.19755 9.02853 9.35 8.76228 9.60793C7.31462 10.8962 7.41812 12.7606 7.41812 12.7606C7.41812 15.1725 10.1732 18.3742 10.1732 18.3742C14.1403 23.2769 19.2241 23.4512 19.2241 23.4512C20.6295 23.4689 22.0309 22.5933 22.4422 21.7421C22.8534 20.8909 22.8153 19.9295 22.7622 19.8001C22.7091 19.6707 22.3196 19.4773 22.3196 19.4773Z" fill="#366C7F"/>
<path d="M13.7765 9.29199L13.3679 9.37098L14.2681 10.2712L14.3757 10.2589C16.4185 10.007 18.2121 10.5313 19.4064 11.7202C20.6008 12.9091 21.1196 14.6999 20.8677 16.7509L20.8541 16.8585L21.7542 17.7587L21.8346 17.3501C22.3426 14.7136 21.7788 12.4175 20.2453 10.8826C18.7119 9.34783 16.413 8.78266 13.7765 9.29199Z" fill="#366C7F"/>
<path d="M21.8116 9.31373C20.2781 7.77892 17.9861 7.21511 15.3441 7.72444L14.9355 7.80343L15.8371 8.70362L15.9447 8.69136C17.9875 8.43942 19.781 8.96373 20.9754 10.1526C22.1697 11.3415 22.6886 13.1337 22.4367 15.1833L22.423 15.2909L23.3232 16.1911L23.4022 15.7826C23.9088 13.1487 23.345 10.8472 21.8116 9.31373Z" fill="#366C7F"/>
</g>
<defs>
<clipPath id="clip0_2794_1005">
<rect width="31" height="31" fill="white"/>
</clipPath>
</defs>
</svg>
