<svg width="16" height="16" viewBox="0 0 16 16" fill="none" xmlns="http://www.w3.org/2000/svg">
<path d="M7.99965 0C6.41747 0 4.87082 0.469171 3.55529 1.34818C2.23975 2.2272 1.21442 3.47657 0.608941 4.93832C0.00346607 6.40006 -0.154954 8.00852 0.153715 9.5603C0.462383 11.1121 1.22428 12.5375 2.34305 13.6563C3.46182 14.775 4.88722 15.5369 6.439 15.8456C7.99078 16.1543 9.59924 15.9958 11.061 15.3904C12.5227 14.7849 13.7721 13.7596 14.6511 12.444C15.5301 11.1285 15.9993 9.58183 15.9993 7.99965C15.9971 5.87869 15.1535 3.84525 13.6538 2.34551C12.1541 0.845767 10.1206 0.00223278 7.99965 0ZM14.7432 7.99965C14.7432 9.3334 14.3477 10.6372 13.6067 11.7462C12.8657 12.8552 11.8125 13.7195 10.5803 14.2299C9.34808 14.7403 7.99217 14.8738 6.68405 14.6136C5.37592 14.3534 4.17433 13.7112 3.23122 12.7681C2.28812 11.825 1.64586 10.6234 1.38565 9.31525C1.12545 8.00713 1.259 6.65122 1.7694 5.41899C2.27981 4.18677 3.14415 3.13356 4.25312 2.39257C5.3621 1.65158 6.6659 1.25607 7.99965 1.25607C9.78753 1.25812 11.5016 1.96926 12.7658 3.23348C14.03 4.4977 14.7412 6.21177 14.7432 7.99965Z" fill="white"/>
<path d="M11.5198 10.0528L10.0332 9.34995C9.73796 9.20937 9.59808 9.42867 9.59808 9.42867L8.93736 10.2468C8.89965 10.2802 8.8538 10.3031 8.80443 10.3131C8.75506 10.3231 8.70393 10.3199 8.6562 10.3038C6.75838 9.60088 5.89804 7.94346 5.89804 7.94346C5.75746 7.74664 5.9374 7.56951 5.9374 7.56951C6.09529 7.41004 6.23877 7.23693 6.36617 7.05218C6.57001 6.75416 6.46036 6.54118 6.46036 6.54118C6.46036 6.54118 5.97255 5.37789 5.82775 5.04753C5.68295 4.71717 5.41726 4.73755 5.41726 4.73755H5.03207C4.84099 4.74716 4.65989 4.82584 4.52247 4.95896C3.7753 5.6239 3.82872 6.58616 3.82872 6.58616C3.82872 7.83099 5.25067 9.4835 5.25067 9.4835C7.29821 12.0139 9.92211 12.1039 9.92211 12.1039C10.6475 12.113 11.3708 11.6611 11.5831 11.2218C11.7953 10.7824 11.7756 10.2862 11.7482 10.2194C11.7208 10.1527 11.5198 10.0528 11.5198 10.0528Z" fill="white"/>
<path d="M7.11053 4.79585L6.89966 4.83662L7.36427 5.30123L7.4198 5.29491C8.47414 5.16487 9.39986 5.43549 10.0163 6.04911C10.6327 6.66274 10.9005 7.58705 10.7705 8.64561L10.7635 8.70114L11.2281 9.16575L11.2696 8.95488C11.5317 7.59408 11.2407 6.409 10.4493 5.61683C9.65782 4.82467 8.47133 4.53297 7.11053 4.79585Z" fill="white"/>
<path d="M11.2577 4.80715C10.4662 4.01499 9.28323 3.72399 7.91961 3.98687L7.70874 4.02764L8.17406 4.49225L8.22959 4.48593C9.28393 4.35589 10.2096 4.62651 10.8261 5.24013C11.4425 5.85376 11.7103 6.77877 11.5803 7.83663L11.5733 7.89216L12.0379 8.35677L12.0786 8.1459C12.3401 6.7865 12.0491 5.59861 11.2577 4.80715Z" fill="white"/>
</svg>
