<svg width="31" height="33" viewBox="0 0 31 33" fill="none" xmlns="http://www.w3.org/2000/svg">
<path d="M15.4993 0.132568C12.4339 0.132568 9.43722 1.07113 6.88837 2.82957C4.33952 4.58801 2.35293 7.08734 1.17982 10.0115C0.00671555 12.9357 -0.300223 16.1534 0.297822 19.2577C0.895867 22.3619 2.37203 25.2134 4.53965 27.4515C6.70727 29.6895 9.46899 31.2137 12.4756 31.8312C15.4821 32.4487 18.5985 32.1317 21.4307 30.9205C24.2628 29.7093 26.6835 27.6581 28.3865 25.0264C30.0896 22.3947 30.9986 19.3007 30.9986 16.1356C30.9943 11.8927 29.36 7.82487 26.4542 4.82469C23.5485 1.8245 19.6087 0.137035 15.4993 0.132568ZM28.565 16.1356C28.565 18.8037 27.7987 21.412 26.363 23.6304C24.9274 25.8489 22.8868 27.578 20.4993 28.599C18.1119 29.6201 15.4848 29.8872 12.9503 29.3667C10.4158 28.8462 8.08777 27.5614 6.2605 25.6747C4.43323 23.7881 3.18884 21.3843 2.6847 18.7674C2.18056 16.1506 2.4393 13.4381 3.42821 10.9731C4.41712 8.50807 6.09179 6.40117 8.24043 4.91883C10.3891 3.4365 12.9152 2.6453 15.4993 2.6453C18.9633 2.6494 22.2843 4.07201 24.7338 6.60105C27.1832 9.13008 28.561 12.559 28.565 16.1356Z" fill="#366C7F"/>
<path d="M16.0399 6.43482C14.4634 6.43365 12.9142 6.86066 11.548 7.67302C10.1817 8.48537 9.04648 9.65447 8.25615 11.063C7.46581 12.4715 7.0482 14.0699 7.04523 15.6977C7.04226 17.3255 7.45403 18.9255 8.23922 20.3371L7.66043 22.5124L6.94409 25.2093L9.56295 24.4908L11.7651 23.8876C12.9686 24.5562 14.3039 24.9327 15.6695 24.9884C17.0351 25.044 18.395 24.7775 19.6458 24.2089C20.8966 23.6403 22.0054 22.7847 22.8878 21.7072C23.7702 20.6297 24.403 19.3586 24.7381 17.9906C25.0731 16.6226 25.1017 15.1937 24.8215 13.8126C24.5413 12.4315 23.9598 11.1345 23.1211 10.0204C22.2825 8.90619 21.2088 8.00415 19.9818 7.38284C18.7547 6.76153 17.4066 6.4373 16.0399 6.43482ZM16.0399 23.394C14.6038 23.3966 13.198 22.9676 11.9939 22.1595L9.15984 22.937L9.91975 20.0798C8.97553 18.6677 8.51687 16.9697 8.61703 15.2569C8.71719 13.5441 9.3704 11.9153 10.4723 10.6308C11.5742 9.34633 13.0613 8.48016 14.6959 8.17068C16.3306 7.8612 18.0185 8.12627 19.4902 8.92354C20.9618 9.72081 22.1322 11.0043 22.8144 12.569C23.4966 14.1337 23.6513 15.8893 23.2538 17.5554C22.8562 19.2215 21.9293 20.7019 20.6212 21.7603C19.3131 22.8187 17.6991 23.3939 16.0372 23.394H16.0399Z" fill="#366C7F"/>
<path d="M20.3012 17.7484L18.6003 16.9146C18.2625 16.7501 18.1018 17.0074 18.1018 17.0074L17.346 17.9748C17.3029 18.0142 17.2505 18.0411 17.194 18.053C17.1376 18.0648 17.0792 18.0612 17.0246 18.0423C15.6979 17.5084 14.5855 16.526 13.8692 15.2554C13.8256 15.1879 13.8062 15.1069 13.8144 15.0262C13.8226 14.9456 13.8579 14.8705 13.9141 14.8139C14.0947 14.6258 14.2587 14.4216 14.4044 14.2036C14.6372 13.8507 14.512 13.6004 14.512 13.6004C14.512 13.6004 13.955 12.2252 13.7929 11.8357C13.6308 11.4462 13.3231 11.4729 13.3231 11.4729H12.8791C12.6597 11.4856 12.4524 11.5806 12.2962 11.7401C12.0417 11.986 11.8396 12.2838 11.7026 12.6148C11.5657 12.9457 11.497 13.3024 11.5009 13.6623C11.5009 15.1331 13.1351 17.0847 13.1351 17.0847C15.4775 20.0756 18.4791 20.1782 18.4791 20.1782C19.3098 20.1881 20.1364 19.6551 20.3857 19.1363C20.556 18.7681 20.6217 18.3575 20.575 17.9523C20.5314 17.8694 20.3012 17.7484 20.3012 17.7484Z" fill="#366C7F"/>
</svg>
