<svg width="52" height="61" viewBox="0 0 52 61" fill="none" xmlns="http://www.w3.org/2000/svg">
<g clip-path="url(#clip0_2799_1174)">
<path d="M51.545 28.4545C51.508 28.386 51.4657 28.3176 51.4233 28.2543L47.3989 22.3717C48.325 19.2104 47.6847 15.3878 45.5759 11.5416C43.7237 8.14843 40.8132 5.00293 37.998 3.33007C31.8198 -0.344942 22.8475 -1.04043 15.1426 1.55711C8.54905 3.78056 3.69645 8.05359 1.47654 13.5911C-1.24345 20.3853 -0.15334 28.4993 4.32618 34.764C9.77939 42.388 10.9753 50.0594 7.98282 58.2103C7.79475 58.7179 7.81674 59.2791 8.04396 59.7706C8.27118 60.2621 8.68505 60.6437 9.19465 60.8316C9.42177 60.9147 9.66178 60.9575 9.90375 60.958C10.3107 60.9571 10.7082 60.8359 11.0459 60.6099C11.3836 60.3838 11.6464 60.0631 11.8009 59.6882L11.8406 59.6039C15.3305 50.0937 13.9573 41.1893 7.67061 32.3851C3.9928 27.2401 3.07996 20.6119 5.28929 15.0928C7.05411 10.6827 11.023 7.24482 16.463 5.41127C23.0777 3.17991 30.7112 3.73314 35.9024 6.82068C40.1174 9.32865 45.1128 16.5997 43.3771 21.5128C43.2224 21.9624 43.1734 22.4413 43.234 22.9127C43.2945 23.384 43.463 23.8353 43.7264 24.2316L47.8037 30.1906C47.717 30.2189 47.6287 30.2418 47.5391 30.2591C46.8321 30.3938 46.2076 30.8024 45.8028 31.3951C45.398 31.9878 45.246 32.7162 45.3801 33.4204C45.3933 33.481 45.4065 33.5416 45.4224 33.6048L45.7637 34.6375L45.6182 34.6929L45.5203 34.735C45.4727 34.7587 45.4277 34.7877 45.3827 34.814C42.6574 34.7245 33.0396 34.8667 26.1337 40.7626C21.2071 44.9776 18.7622 51.0789 18.8681 58.9401C18.8881 59.4972 19.1263 60.0245 19.5318 60.409C19.9373 60.7935 20.4778 61.0048 21.0377 60.9975H21.0642C21.6482 60.9898 22.2058 60.7543 22.6173 60.3416C22.8071 60.1494 22.9567 59.9217 23.0575 59.6717C23.1583 59.4216 23.2083 59.1542 23.2047 58.8847C23.1148 52.2987 25.0569 47.2617 29.0019 43.8975C34.7568 38.9764 43.3163 38.9316 45.3219 38.9949C44.9714 40.2113 44.9125 41.4926 45.1499 42.7357L45.3377 43.6578C45.3533 43.7337 45.3455 43.8126 45.3153 43.8841C45.2851 43.9555 45.2339 44.0162 45.1684 44.0582C44.8509 44.2611 43.8666 44.7326 41.4985 44.6826C36.855 44.5719 33.2115 46.7058 31.5049 50.5363C30.6477 52.4594 30.2402 55.2782 30.2958 58.9348C30.3061 59.4697 30.5261 59.9793 30.9087 60.3549C31.2914 60.7305 31.8064 60.9422 32.3437 60.9448H32.3728C32.916 60.9358 33.4334 60.7129 33.8118 60.3247C34.1902 59.9366 34.3987 59.415 34.3916 58.8742C34.3493 55.9052 34.6562 53.5316 35.2515 52.1907C36.5454 49.2928 39.313 48.7238 41.4033 48.7659C43.9592 48.8292 45.9728 48.4024 47.3962 47.4882C48.3752 46.8531 49.0664 45.8624 49.3225 44.7274L49.3383 44.6457C49.4753 43.7295 49.4157 42.7949 49.1637 41.9033C49.0155 41.0787 49.206 40.2989 49.5844 39.2399V39.2135C49.779 38.622 49.7373 37.9786 49.468 37.4168C49.79 37.1265 50.0284 36.756 50.1586 36.3434C50.2888 35.9308 50.3062 35.4911 50.2088 35.0696L49.7855 33.7866C50.6032 33.4134 51.2654 32.769 51.6588 31.9636L51.68 31.9162C51.9112 31.364 52.019 30.7683 51.9956 30.1705C51.9723 29.5728 51.8186 28.9872 51.545 28.4545Z" fill="white"/>
</g>
<defs>
<clipPath id="clip0_2799_1174">
<rect width="52" height="61" fill="white"/>
</clipPath>
</defs>
</svg>
