<svg width="43" height="49" viewBox="0 0 43 49" fill="none" xmlns="http://www.w3.org/2000/svg">
<path d="M36.4042 29.9682C36.0803 29.8348 35.8001 29.6211 35.5929 29.3496C35.3858 29.0781 35.2593 28.7587 35.2267 28.4249C34.1171 19.2388 32.2351 11.8016 29.3165 5.04769C28.6981 3.5615 27.6241 2.28582 26.2335 1.38586C24.8429 0.485892 23.1998 0.00310375 21.5169 1.49146e-05C19.834 -0.00307392 18.1889 0.473679 16.7946 1.36853C15.4004 2.26338 14.3212 3.53511 13.6968 5.01902C10.7631 11.8016 8.88108 19.2388 7.77401 28.4057C7.74444 28.74 7.621 29.0606 7.41655 29.3342C7.2121 29.6077 6.93413 29.8242 6.61159 29.961C1.71032 31.7361 -0.936569 36.617 0.303846 41.5529C0.728178 43.2902 1.6537 44.8809 2.97668 46.1469C4.29966 47.4128 5.9678 48.3038 7.79414 48.7201C9.25415 49.0576 10.7742 49.0881 12.2479 48.8095C13.7216 48.531 15.1135 47.9501 16.3261 47.1075C17.7417 48.3254 19.5837 49 21.4941 49C23.4044 49 25.2464 48.3254 26.662 47.1075C28.4222 48.3326 30.5483 48.9921 32.7308 48.9901C33.559 48.9905 34.3843 48.8967 35.1889 48.7105C37.0151 48.299 38.6845 47.4127 40.0102 46.1511C41.3358 44.8894 42.2652 43.3022 42.6943 41.5672C43.9398 36.6313 41.2879 31.7361 36.4042 29.9682ZM38.5051 40.6354C38.2524 41.6288 37.7169 42.5371 36.9572 43.2609C36.1975 43.9848 35.2429 44.4964 34.1976 44.7399C33.3557 44.9413 32.4775 44.9649 31.625 44.8088C30.7724 44.6528 29.9664 44.321 29.2636 43.8368C29.9155 43.2249 30.7951 42.8816 31.7118 42.8812H32.2552C32.8278 42.8812 33.3769 42.6652 33.7817 42.2808C34.1866 41.8964 34.414 41.375 34.414 40.8313C34.414 40.2877 34.1866 39.7663 33.7817 39.3819C33.3769 38.9975 32.8278 38.7815 32.2552 38.7815H31.7193C30.3625 38.7849 29.0302 39.1243 27.8538 39.7662C26.6774 40.4081 25.6978 41.3302 25.0115 42.4416L24.5083 43.2754C24.2032 43.7721 23.7663 44.1842 23.2412 44.4707C22.7161 44.7571 22.121 44.9078 21.5154 44.9078C20.9098 44.9078 20.3148 44.7571 19.7897 44.4707C19.2646 44.1842 18.8277 43.7721 18.5226 43.2754L18.0194 42.444C17.3313 41.3287 16.3478 40.4038 15.1666 39.7613C13.9854 39.1188 12.6477 38.781 11.2864 38.7815H10.7505C10.462 38.7721 10.1744 38.818 9.90495 38.9164C9.63549 39.0148 9.38963 39.1636 9.18203 39.3541C8.97443 39.5446 8.80934 39.7728 8.69658 40.0252C8.58383 40.2775 8.52572 40.5489 8.52572 40.823C8.52572 41.0971 8.58383 41.3684 8.69658 41.6208C8.80934 41.8731 8.97443 42.1014 9.18203 42.2919C9.38963 42.4823 9.63549 42.6312 9.90495 42.7296C10.1744 42.828 10.462 42.8738 10.7505 42.8645H11.2864C12.2025 42.8642 13.0815 43.2077 13.732 43.8201C13.0269 44.3044 12.2187 44.6362 11.3641 44.7922C10.5096 44.9482 9.62942 44.9246 8.78547 44.7232C7.74274 44.4776 6.79084 43.9654 6.03319 43.2422C5.27554 42.519 4.74113 41.6125 4.48804 40.6211C4.10332 39.2493 4.26545 37.7908 4.94335 36.5255C5.62125 35.2602 6.76721 34.277 8.16148 33.7644C9.21218 33.3585 10.1277 32.6903 10.8112 31.8307C11.4946 30.971 11.9205 29.9519 12.0438 28.8812C13.1055 20.087 14.8944 12.9938 17.6873 6.52892C17.9926 5.80177 18.5214 5.17873 19.2048 4.74089C19.8882 4.30305 20.6946 4.07068 21.519 4.07403C22.3435 4.07738 23.1477 4.3163 23.8272 4.75968C24.5066 5.20306 25.0298 5.83037 25.3285 6.55998C28.0962 12.9842 29.8952 20.0774 30.9595 28.8979C31.0849 29.9679 31.5132 30.9856 32.199 31.8429C32.8848 32.7002 33.8024 33.3651 34.8543 33.7668C37.3049 34.6627 39.3455 37.3003 38.5051 40.6354Z" fill="white"/>
</svg>
