<svg width="204" height="40" viewBox="0 0 204 40" fill="none" xmlns="http://www.w3.org/2000/svg">
<g clip-path="url(#clip0_2759_3)">
<path d="M59.4334 35.3622C59.0996 35.1814 58.7236 35.0864 58.3412 35.0864C57.9588 35.0864 57.5827 35.1814 57.249 35.3622C56.9296 35.5439 56.6681 35.8073 56.4932 36.1236C56.3078 36.4657 56.2109 36.8463 56.2109 37.2327C56.2109 37.619 56.3078 37.9997 56.4932 38.3418C56.6689 38.6587 56.9302 38.9235 57.249 39.108C57.5827 39.2888 57.9588 39.3838 58.3412 39.3838C58.7236 39.3838 59.0996 39.2888 59.4334 39.108C59.7528 38.9242 60.0142 38.6592 60.1892 38.3418C60.3729 37.9992 60.4688 37.6187 60.4688 37.2327C60.4688 36.8466 60.3729 36.4662 60.1892 36.1236C60.0154 35.8065 59.7536 35.5428 59.4334 35.3622ZM59.582 38.0465C59.4704 38.2664 59.2953 38.4504 59.0781 38.576C58.8556 38.701 58.6022 38.7651 58.345 38.7615C58.0854 38.7651 57.8295 38.701 57.6042 38.576C57.3851 38.4527 57.2095 38.2681 57.1004 38.0465C56.9808 37.7951 56.9189 37.5216 56.9189 37.2449C56.9189 36.9681 56.9808 36.6946 57.1004 36.4432C57.2095 36.2216 57.3851 36.0371 57.6042 35.9137C57.8297 35.7894 58.0856 35.7262 58.345 35.7307C58.6019 35.7262 58.8554 35.7895 59.0781 35.9137C59.2953 36.0394 59.4704 36.2233 59.582 36.4432C59.7016 36.6946 59.7635 36.9681 59.7635 37.2449C59.7635 37.5216 59.7016 37.7951 59.582 38.0465Z" fill="#366C7F"/>
<path d="M61.7764 35.6867H62.9781V39.3374H63.6836V35.6867H64.8929V35.1401H61.7764V35.6867Z" fill="#366C7F"/>
<path d="M69.4304 35.3622C69.0967 35.1814 68.7206 35.0864 68.3382 35.0864C67.9558 35.0864 67.5798 35.1814 67.2461 35.3622C66.9211 35.5418 66.6542 35.8054 66.4751 36.1236C66.2897 36.4657 66.1929 36.8463 66.1929 37.2327C66.1929 37.619 66.2897 37.9997 66.4751 38.3418C66.6552 38.6605 66.9218 38.9254 67.2461 39.108C67.5798 39.2888 67.9558 39.3838 68.3382 39.3838C68.7206 39.3838 69.0967 39.2888 69.4304 39.108C69.7495 38.9238 70.0108 38.6589 70.1862 38.3418C70.37 37.9992 70.4659 37.6187 70.4659 37.2327C70.4659 36.8466 70.37 36.4662 70.1862 36.1236C70.0119 35.8069 69.7503 35.5433 69.4304 35.3622ZM69.5765 38.0465C69.4657 38.267 69.2905 38.4511 69.0726 38.576C68.8501 38.701 68.5967 38.7651 68.3395 38.7615C68.0799 38.7651 67.8241 38.701 67.5988 38.576C67.3811 38.4509 67.2059 38.2668 67.0949 38.0465C66.9753 37.7951 66.9134 37.5216 66.9134 37.2449C66.9134 36.9681 66.9753 36.6946 67.0949 36.4432C67.2059 36.2229 67.3811 36.0388 67.5988 35.9137C67.8243 35.7894 68.0801 35.7262 68.3395 35.7307C68.5965 35.7262 68.8499 35.7895 69.0726 35.9137C69.2905 36.0386 69.4657 36.2227 69.5765 36.4432C69.6961 36.6946 69.758 36.9681 69.758 37.2449C69.758 37.5216 69.6961 37.7951 69.5765 38.0465Z" fill="#366C7F"/>
<path d="M74.8523 37.2265C75.0487 37.0016 75.1503 36.7132 75.137 36.4188C75.1443 36.2468 75.114 36.0753 75.048 35.9155C74.982 35.7556 74.8818 35.6112 74.754 35.4915C74.4399 35.2373 74.0361 35.1112 73.6278 35.1401H72.1011V39.3374H72.8015V37.6609H73.3054L74.3862 39.3374H75.1748L74.041 37.6292C74.3512 37.5893 74.6377 37.4471 74.8523 37.2265ZM72.8015 37.1802V35.716H73.5749C73.8061 35.6967 74.0358 35.7659 74.2149 35.9088C74.2851 35.9805 74.3396 36.0653 74.3751 36.158C74.4107 36.2507 74.4264 36.3494 74.4215 36.4481C74.4215 36.9362 74.1393 37.1802 73.5749 37.1802H72.8015Z" fill="#366C7F"/>
<path d="M79.4428 37.2265C79.6381 37.001 79.7396 36.713 79.7275 36.4188C79.7348 36.2468 79.7044 36.0753 79.6384 35.9155C79.5724 35.7556 79.4723 35.6112 79.3445 35.4915C79.03 35.2379 78.6265 35.112 78.2183 35.1401H76.6865V39.3374H77.3844V37.6609H77.8883L78.9666 39.3374H79.7527L78.6164 37.6292C78.9316 37.5914 79.2236 37.4491 79.4428 37.2265ZM77.3894 37.1802V35.716H78.1629C78.3948 35.6971 78.6251 35.7662 78.8054 35.9088C78.8752 35.9807 78.9292 36.0656 78.9643 36.1582C78.9994 36.2509 79.0147 36.3495 79.0094 36.4481C79.0094 36.9361 78.7273 37.1802 78.1629 37.1802H77.3894Z" fill="#366C7F"/>
<path d="M81.9821 35.1401H81.2817V39.3349H81.9821V35.1401Z" fill="#366C7F"/>
<path d="M86.5524 38.2539L84.4462 35.1474H83.7483V39.3374H84.4462V36.2406L86.5524 39.3374H87.2503V35.1474H86.5524V38.2539Z" fill="#366C7F"/>
<path d="M92.1128 35.3622C91.779 35.1814 91.403 35.0864 91.0206 35.0864C90.6382 35.0864 90.2622 35.1814 89.9284 35.3622C89.6039 35.5423 89.3371 35.8058 89.1575 36.1236C88.9721 36.4657 88.8752 36.8463 88.8752 37.2327C88.8752 37.619 88.9721 37.9997 89.1575 38.3418C89.3383 38.6599 89.6047 38.9247 89.9284 39.108C90.2622 39.2888 90.6382 39.3838 91.0206 39.3838C91.403 39.3838 91.779 39.2888 92.1128 39.108C92.4319 38.9238 92.6932 38.6589 92.8686 38.3418C93.0523 37.9992 93.1483 37.6187 93.1483 37.2327C93.1483 36.8466 93.0523 36.4662 92.8686 36.1236C92.6943 35.8069 92.4327 35.5433 92.1128 35.3622ZM92.2589 38.0465C92.1476 38.2667 91.9725 38.4507 91.755 38.576C91.5295 38.6983 91.2753 38.7625 91.0168 38.7625C90.7583 38.7625 90.5042 38.6983 90.2786 38.576C90.0609 38.4509 89.8858 38.2668 89.7747 38.0465C89.6552 37.7951 89.5932 37.5216 89.5932 37.2449C89.5932 36.9681 89.6552 36.6946 89.7747 36.4432C89.8858 36.2229 90.0609 36.0388 90.2786 35.9137C90.5049 35.7936 90.7588 35.7307 91.0168 35.7307C91.2748 35.7307 91.5287 35.7936 91.755 35.9137C91.9725 36.039 92.1476 36.223 92.2589 36.4432C92.3785 36.6946 92.4404 36.9681 92.4404 37.2449C92.4404 37.5216 92.3785 37.7951 92.2589 38.0465Z" fill="#366C7F"/>
<path d="M95.4838 35.1401H94.7859V39.3374H96.9828V38.8078H95.4838V35.1401Z" fill="#366C7F"/>
<path d="M99.7166 35.206L98.1218 39.3374H98.8777L99.2102 38.4272H101.037L101.369 39.3374H102.125L100.535 35.206H99.7166ZM99.3992 37.905L100.117 35.9527L100.833 37.905H99.3992Z" fill="#366C7F"/>
<path d="M106.305 37.2265C106.5 37.001 106.602 36.713 106.589 36.4188C106.597 36.2468 106.566 36.0753 106.5 35.9155C106.434 35.7556 106.334 35.6111 106.207 35.4915C105.891 35.2405 105.487 35.1173 105.08 35.1474H103.551V39.3447H104.251V37.6609H104.755L105.836 39.3374H106.62L105.486 37.6292C105.798 37.5898 106.087 37.4476 106.305 37.2265ZM104.251 37.1802V35.716H105.025C105.256 35.6967 105.486 35.7659 105.665 35.9088C105.736 35.9797 105.791 36.0644 105.827 36.1573C105.863 36.2501 105.878 36.3492 105.871 36.4481C105.871 36.9361 105.589 37.1802 105.025 37.1802H104.251Z" fill="#366C7F"/>
<path d="M108.842 35.1401H108.142V39.3349H108.842V35.1401Z" fill="#366C7F"/>
<path d="M113.412 38.2539L111.308 35.1474H110.608V39.3374H111.308V36.2406L113.412 39.3374H114.112V35.1474H113.412V38.2539Z" fill="#366C7F"/>
<path d="M117.738 37.5608H119.328C119.291 37.9031 119.124 38.2199 118.859 38.4491C118.603 38.6639 118.273 38.7787 117.934 38.7712C117.664 38.7779 117.396 38.7157 117.158 38.5907C116.934 38.4709 116.753 38.2879 116.639 38.066C116.51 37.8086 116.447 37.5248 116.456 37.2387C116.449 36.9633 116.511 36.6903 116.637 36.4432C116.75 36.2254 116.925 36.0433 117.141 35.9185C117.362 35.7953 117.614 35.7321 117.869 35.7355C118.136 35.7306 118.398 35.8009 118.625 35.9381C118.834 36.0661 118.996 36.2548 119.088 36.4774H119.824C119.728 36.0753 119.486 35.7197 119.144 35.4744C118.767 35.2187 118.314 35.0893 117.854 35.1059C117.464 35.0983 117.08 35.1918 116.74 35.3768C116.422 35.5532 116.164 35.8151 115.997 36.1308C115.823 36.4758 115.732 36.8548 115.732 37.2387C115.732 37.6227 115.823 38.0016 115.997 38.3466C116.167 38.6656 116.43 38.9294 116.753 39.1056C117.093 39.2914 117.478 39.3857 117.869 39.3789C118.219 39.386 118.566 39.3079 118.877 39.1519C119.159 39.0094 119.401 38.8025 119.582 38.5492C119.761 38.2977 119.877 38.0096 119.922 37.7073V37.0606H117.745L117.738 37.5608Z" fill="#366C7F"/>
<path d="M124.636 35.3622C124.302 35.1814 123.926 35.0864 123.544 35.0864C123.162 35.0864 122.786 35.1814 122.452 35.3622C122.132 35.5439 121.871 35.8073 121.696 36.1236C121.511 36.4657 121.414 36.8463 121.414 37.2327C121.414 37.619 121.511 37.9997 121.696 38.3418C121.872 38.6587 122.133 38.9235 122.452 39.108C122.786 39.2888 123.162 39.3838 123.544 39.3838C123.926 39.3838 124.302 39.2888 124.636 39.108C124.96 38.9253 125.225 38.6603 125.405 38.3418C125.587 37.9987 125.682 37.6185 125.682 37.2327C125.682 36.8469 125.587 36.4667 125.405 36.1236C125.226 35.8057 124.96 35.5421 124.636 35.3622ZM124.785 38.0465C124.673 38.2664 124.498 38.4504 124.281 38.576C124.058 38.701 123.805 38.7651 123.548 38.7615C123.287 38.7652 123.031 38.7011 122.805 38.576C122.587 38.4509 122.412 38.2668 122.301 38.0465C122.184 37.7945 122.123 37.5213 122.123 37.2449C122.123 36.9685 122.184 36.6952 122.301 36.4432C122.412 36.2229 122.587 36.0388 122.805 35.9137C123.031 35.7895 123.288 35.7263 123.548 35.7307C123.805 35.7262 124.058 35.7895 124.281 35.9137C124.498 36.0394 124.673 36.2233 124.785 36.4432C124.902 36.6952 124.963 36.9685 124.963 37.2449C124.963 37.5213 124.902 37.7945 124.785 38.0465Z" fill="#366C7F"/>
<path d="M128.01 35.1401H127.309V39.3374H129.506V38.8078H128.01V35.1401Z" fill="#366C7F"/>
<path d="M134.066 35.3622C133.733 35.1814 133.357 35.0864 132.974 35.0864C132.592 35.0864 132.216 35.1814 131.882 35.3622C131.555 35.541 131.286 35.8047 131.106 36.1236C130.921 36.4657 130.824 36.8463 130.824 37.2327C130.824 37.619 130.921 37.9997 131.106 38.3418C131.285 38.6603 131.551 38.9253 131.874 39.108C132.208 39.2888 132.584 39.3838 132.967 39.3838C133.349 39.3838 133.725 39.2888 134.059 39.108C134.378 38.9235 134.639 38.6587 134.815 38.3418C134.998 37.9992 135.094 37.6187 135.094 37.2327C135.094 36.8466 134.998 36.4662 134.815 36.1236C134.642 35.8083 134.383 35.5449 134.066 35.3622ZM134.215 38.0465C134.103 38.2664 133.928 38.4504 133.711 38.576C133.489 38.701 133.235 38.7651 132.978 38.7615C132.717 38.7652 132.461 38.7011 132.235 38.576C132.017 38.4509 131.842 38.2668 131.731 38.0465C131.614 37.7945 131.553 37.5213 131.553 37.2449C131.553 36.9685 131.614 36.6952 131.731 36.4432C131.842 36.2229 132.017 36.0388 132.235 35.9137C132.461 35.7895 132.718 35.7263 132.978 35.7307C133.235 35.7262 133.488 35.7895 133.711 35.9137C133.928 36.0394 134.103 36.2233 134.215 36.4432C134.332 36.6952 134.393 36.9685 134.393 37.2449C134.393 37.5213 134.332 37.7945 134.215 38.0465Z" fill="#366C7F"/>
<path d="M138.599 37.5608H140.176C140.142 37.9032 139.975 38.2204 139.71 38.4491C139.453 38.6635 139.124 38.7782 138.785 38.7712C138.515 38.7779 138.247 38.7157 138.009 38.5907C137.785 38.4709 137.604 38.2879 137.49 38.066C137.361 37.8086 137.298 37.5248 137.306 37.2387C137.3 36.9635 137.361 36.6908 137.485 36.4432C137.598 36.2255 137.773 36.0435 137.989 35.9185C138.21 35.7949 138.462 35.7317 138.717 35.7355C138.984 35.7306 139.247 35.8009 139.473 35.9381C139.682 36.0667 139.844 36.2553 139.937 36.4774H140.68C140.584 36.0753 140.342 35.7197 140 35.4744C139.623 35.2187 139.17 35.0893 138.71 35.1059C138.32 35.0983 137.936 35.1918 137.596 35.3768C137.274 35.5523 137.012 35.8142 136.84 36.1308C136.668 36.4763 136.578 36.855 136.578 37.2387C136.578 37.6224 136.668 38.0012 136.84 38.3466C137.012 38.6649 137.274 38.9284 137.596 39.1056C137.936 39.2914 138.322 39.3857 138.712 39.3789C139.063 39.386 139.409 39.3079 139.72 39.1519C140.002 39.0094 140.244 38.8025 140.426 38.5492C140.604 38.2977 140.721 38.0096 140.766 37.7073V37.0606H138.589L138.599 37.5608Z" fill="#366C7F"/>
<path d="M143.104 35.1401H142.403V39.3349H143.104V35.1401Z" fill="#366C7F"/>
<path d="M146.139 35.206L144.545 39.3374H145.301L145.631 38.4272H147.46L147.79 39.3374H148.546L146.958 35.206H146.139ZM145.82 37.905L146.538 35.9527L147.256 37.905H145.82Z" fill="#366C7F"/>
<path d="M152.33 39.3374H154.809V38.7834H153.03V37.4828H154.625V36.9605H153.03V35.6867H154.809V35.1401H152.33V39.3374Z" fill="#366C7F"/>
<path d="M160.037 35.206L158.439 39.3374H159.195L159.525 38.4272H161.339L161.669 39.3374H162.425L160.835 35.206H160.037ZM159.717 37.905L160.435 35.9527L161.153 37.905H159.717Z" fill="#366C7F"/>
<path d="M166.471 37.6316C166.495 37.9295 166.406 38.2256 166.219 38.4638C166.129 38.5562 166.019 38.6285 165.896 38.6757C165.774 38.7229 165.643 38.7438 165.511 38.7371C165.379 38.7441 165.246 38.7233 165.123 38.6761C164.999 38.6289 164.888 38.5565 164.796 38.4638C164.609 38.2256 164.52 37.9295 164.544 37.6316V35.1474H163.843V37.6389C163.826 37.8746 163.858 38.1112 163.936 38.335C164.014 38.5587 164.138 38.7651 164.299 38.942C164.458 39.0918 164.646 39.2084 164.853 39.2848C165.06 39.3612 165.28 39.3957 165.501 39.3862C165.724 39.3956 165.947 39.3612 166.155 39.2848C166.364 39.2085 166.555 39.0919 166.716 38.942C166.879 38.7661 167.004 38.56 167.083 38.3361C167.163 38.1122 167.194 37.875 167.177 37.6389V35.1474H166.476L166.471 37.6316Z" fill="#366C7F"/>
<path d="M171.581 35.3915C171.2 35.2115 170.78 35.1228 170.356 35.1328H168.897V39.3301H170.346C170.77 39.3406 171.19 39.251 171.571 39.069C171.899 38.9049 172.17 38.6501 172.349 38.3369C172.533 37.9952 172.625 37.6141 172.616 37.229C172.625 36.8445 172.533 36.4642 172.349 36.1235C172.174 35.8107 171.906 35.5558 171.581 35.3915ZM171.498 38.3198C171.168 38.5989 170.738 38.7402 170.301 38.7127H169.608V35.7404H170.301C170.738 35.7129 171.168 35.8542 171.498 36.1333C171.764 36.441 171.91 36.8298 171.91 37.2314C171.91 37.6331 171.764 38.0219 171.498 38.3296V38.3198Z" fill="#366C7F"/>
<path d="M174.954 35.1401H174.254V39.3349H174.954V35.1401Z" fill="#366C7F"/>
<path d="M179.814 35.3622C179.48 35.1814 179.104 35.0864 178.722 35.0864C178.34 35.0864 177.964 35.1814 177.63 35.3622C177.305 35.5423 177.038 35.8058 176.859 36.1236C176.674 36.4657 176.577 36.8463 176.577 37.2327C176.577 37.619 176.674 37.9997 176.859 38.3418C177.04 38.6599 177.306 38.9247 177.63 39.108C177.964 39.2888 178.34 39.3838 178.722 39.3838C179.104 39.3838 179.48 39.2888 179.814 39.108C180.133 38.9238 180.395 38.6589 180.57 38.3418C180.754 37.9992 180.85 37.6187 180.85 37.2327C180.85 36.8466 180.754 36.4662 180.57 36.1236C180.396 35.8069 180.134 35.5433 179.814 35.3622ZM179.96 38.0465C179.849 38.2667 179.674 38.4507 179.456 38.576C179.231 38.6983 178.977 38.7625 178.718 38.7625C178.46 38.7625 178.206 38.6983 177.98 38.576C177.762 38.4509 177.587 38.2668 177.476 38.0465C177.357 37.7951 177.295 37.5216 177.295 37.2449C177.295 36.9681 177.357 36.6946 177.476 36.4432C177.587 36.2229 177.762 36.0388 177.98 35.9137C178.206 35.7936 178.46 35.7307 178.718 35.7307C178.976 35.7307 179.23 35.7936 179.456 35.9137C179.674 36.039 179.849 36.223 179.96 36.4432C180.08 36.6946 180.142 36.9681 180.142 37.2449C180.142 37.5216 180.08 37.7951 179.96 38.0465Z" fill="#366C7F"/>
<path d="M183.185 35.1401H182.487V39.3374H184.684V38.8078H183.185V35.1401Z" fill="#366C7F"/>
<path d="M189.244 35.3622C188.911 35.1814 188.535 35.0864 188.152 35.0864C187.77 35.0864 187.394 35.1814 187.06 35.3622C186.733 35.5412 186.463 35.8048 186.282 36.1236C186.096 36.4657 185.999 36.8463 185.999 37.2327C185.999 37.619 186.096 37.9997 186.282 38.3418C186.462 38.6599 186.729 38.9247 187.052 39.108C187.386 39.2888 187.762 39.3838 188.145 39.3838C188.527 39.3838 188.903 39.2888 189.237 39.108C189.556 38.9238 189.817 38.6589 189.993 38.3418C190.176 37.9992 190.272 37.6187 190.272 37.2327C190.272 36.8466 190.176 36.4662 189.993 36.1236C189.82 35.8078 189.561 35.5443 189.244 35.3622ZM189.39 38.0465C189.28 38.267 189.104 38.4511 188.887 38.576C188.664 38.701 188.411 38.7651 188.153 38.7615C187.894 38.7651 187.638 38.701 187.413 38.576C187.195 38.4509 187.02 38.2668 186.909 38.0465C186.789 37.7951 186.727 37.5216 186.727 37.2449C186.727 36.9681 186.789 36.6946 186.909 36.4432C187.02 36.2229 187.195 36.0388 187.413 35.9137C187.638 35.7894 187.894 35.7262 188.153 35.7307C188.41 35.7262 188.664 35.7895 188.887 35.9137C189.104 36.0386 189.28 36.2227 189.39 36.4432C189.51 36.6946 189.572 36.9681 189.572 37.2449C189.572 37.5216 189.51 37.7951 189.39 38.0465Z" fill="#366C7F"/>
<path d="M198.282 35.1401H197.581V39.3349H198.282V35.1401Z" fill="#366C7F"/>
<path d="M202.119 35.206H201.315L199.72 39.3374H200.476L200.809 38.4272H202.635L202.968 39.3374H203.724L202.119 35.206ZM200.998 37.905L201.716 35.9527L202.431 37.905H200.998Z" fill="#366C7F"/>
<path d="M79.7298 22.3286C77.2641 24.6631 74.2265 25.8304 70.617 25.8304C67.0075 25.8304 63.9699 24.6631 61.5043 22.3286C59.0369 19.9956 57.8032 17.0933 57.8032 13.6216C57.8032 10.1499 59.0369 7.24676 61.5043 4.91222C63.9699 2.5793 67.0075 1.41284 70.617 1.41284C74.2265 1.41284 77.2641 2.5793 79.7298 4.91222C82.1972 7.24676 83.4309 10.1499 83.4309 13.6216C83.4309 17.0933 82.1972 19.9956 79.7298 22.3286ZM77.8806 13.6387C77.9249 11.6459 77.1741 9.71334 75.7844 8.24321C75.1362 7.54166 74.3425 6.98044 73.4551 6.5962C72.5677 6.21197 71.6067 6.01337 70.6347 6.01337C69.6627 6.01337 68.7016 6.21197 67.8142 6.5962C66.9269 6.98044 66.1332 7.54166 65.485 8.24321C64.096 9.71358 63.3461 11.6462 63.3913 13.6387C63.3459 15.6232 64.0963 17.5475 65.485 19.0073C66.1357 19.7048 66.9303 20.2623 67.8173 20.6439C68.7043 21.0255 69.6641 21.2227 70.6347 21.2227C71.6053 21.2227 72.565 21.0255 73.4521 20.6439C74.3391 20.2623 75.1336 19.7048 75.7844 19.0073C77.1737 17.5477 77.925 15.6235 77.8806 13.6387Z" fill="#898989"/>
<path d="M92.8586 11.052V19.2001C92.8213 19.7963 93.0205 20.3838 93.4154 20.8424C93.5797 21.0278 93.7834 21.1765 94.0125 21.2785C94.2417 21.3804 94.491 21.4331 94.7432 21.433C95.7207 21.433 96.5471 21.0043 97.2223 20.1469L99.1773 23.7C97.5481 25.1414 95.8315 25.8621 94.0276 25.8621C93.1854 25.8814 92.3475 25.7391 91.5623 25.4434C90.777 25.1478 90.06 24.7045 89.4523 24.1393C88.2078 22.9907 87.5855 21.4232 87.5855 19.4368V11.052H85.386V7.39156H87.5855V1.95947H92.8586V7.39888H97.3936V11.0593L92.8586 11.052Z" fill="#898989"/>
<path d="M119.847 16.4963C119.875 17.7357 119.638 18.9673 119.151 20.1138C118.664 21.2603 117.938 22.2968 117.017 23.1583C115.133 24.969 112.765 25.8743 109.913 25.8743C107.061 25.8743 104.692 24.9731 102.808 23.1705C101.888 22.3085 101.163 21.2718 100.676 20.1254C100.19 18.979 99.9531 17.7477 99.9811 16.5085C99.9525 15.2649 100.189 14.029 100.675 12.8778C101.162 11.7266 101.888 10.6847 102.808 9.81723C104.692 7.99515 107.061 7.08411 109.913 7.08411C112.765 7.08411 115.133 7.99189 117.017 9.80747C117.938 10.6742 118.665 11.7155 119.152 12.8664C119.638 14.0172 119.875 15.2529 119.847 16.4963ZM105.252 16.4963C105.252 17.9849 105.688 19.1969 106.562 20.1323C106.992 20.5752 107.511 20.9282 108.087 21.1694C108.664 21.4107 109.285 21.5351 109.913 21.5351C110.54 21.5351 111.162 21.4107 111.738 21.1694C112.314 20.9282 112.833 20.5752 113.263 20.1323C114.137 19.1953 114.574 17.9833 114.574 16.4963C114.574 15.0094 114.137 13.7892 113.263 12.8359C112.836 12.3881 112.318 12.0308 111.741 11.7865C111.165 11.5421 110.542 11.416 109.913 11.416C109.283 11.416 108.661 11.5421 108.084 11.7865C107.507 12.0308 106.989 12.3881 106.562 12.8359C105.688 13.7876 105.252 15.0077 105.252 16.4963Z" fill="#898989"/>
<path d="M193.774 37.5608H195.364C195.329 37.9029 195.162 38.2197 194.898 38.4491C194.641 38.6639 194.311 38.7786 193.971 38.7712C193.701 38.7776 193.433 38.7153 193.195 38.5906C192.972 38.4698 192.791 38.2871 192.676 38.066C192.548 37.8082 192.485 37.5247 192.492 37.2387C192.485 36.9633 192.548 36.6903 192.674 36.4432C192.787 36.2255 192.961 36.0435 193.177 35.9185C193.398 35.7949 193.648 35.7316 193.903 35.7355C194.17 35.7313 194.432 35.8016 194.659 35.9381C194.867 36.0661 195.029 36.2549 195.12 36.4774H195.858C195.762 36.0747 195.519 35.7188 195.175 35.4744C194.799 35.2184 194.347 35.0889 193.888 35.1059C193.498 35.0981 193.114 35.1916 192.774 35.3768C192.452 35.5516 192.189 35.8137 192.018 36.1308C191.844 36.4758 191.754 36.8547 191.754 37.2387C191.754 37.6227 191.844 38.0016 192.018 38.3466C192.19 38.6645 192.452 38.928 192.774 39.1056C193.115 39.2913 193.5 39.3857 193.89 39.3789C194.241 39.3855 194.587 39.3075 194.898 39.1519C195.18 39.0094 195.422 38.8025 195.604 38.5492C195.78 38.2966 195.897 38.009 195.944 37.7073V37.0606H193.764L193.774 37.5608Z" fill="#366C7F"/>
<path d="M128.259 25.5937H123.024V0.4953H128.259V25.5937Z" fill="#366C7F"/>
<path d="M151.304 16.4963C151.332 17.7356 151.095 18.9671 150.608 20.1134C150.121 21.2598 149.395 22.2964 148.475 23.1583C146.59 24.969 144.222 25.8743 141.37 25.8743C138.518 25.8743 136.15 24.9731 134.265 23.1705C133.346 22.3086 132.619 21.272 132.133 20.1256C131.646 18.9793 131.409 17.7478 131.436 16.5085C131.408 15.2648 131.645 14.0288 132.132 12.8776C132.618 11.7264 133.345 10.6846 134.265 9.81723C136.15 7.99515 138.518 7.08411 141.37 7.08411C144.222 7.08411 146.59 7.99189 148.475 9.80747C149.395 10.6746 150.122 11.7159 150.608 12.8667C151.095 14.0175 151.332 15.253 151.304 16.4963ZM136.709 16.4963C136.709 17.9849 137.146 19.1969 138.019 20.1323C138.449 20.5752 138.969 20.9282 139.545 21.1694C140.121 21.4107 140.742 21.5351 141.37 21.5351C141.998 21.5351 142.619 21.4107 143.195 21.1694C143.772 20.9282 144.291 20.5752 144.721 20.1323C145.596 19.1953 146.033 17.9833 146.031 16.4963C146.029 15.0094 145.593 13.7892 144.721 12.8359C144.294 12.3881 143.776 12.0308 143.199 11.7865C142.622 11.5421 142 11.416 141.37 11.416C140.741 11.416 140.118 11.5421 139.541 11.7865C138.965 12.0308 138.447 12.3881 138.019 12.8359C137.146 13.7876 136.709 15.0077 136.709 16.4963Z" fill="#366C7F"/>
<path d="M168.376 22.5165C167.614 23.372 166.667 24.0546 165.602 24.516C164.537 24.9774 163.38 25.2062 162.213 25.1862C161.062 25.2114 159.918 25.01 158.85 24.5944C157.781 24.1787 156.811 23.5573 155.998 22.7678C154.318 21.1572 153.479 19.0049 153.479 16.3108C153.479 13.6168 154.345 11.4067 156.079 9.68057C157.805 7.95772 159.786 7.09223 162.022 7.0841C164.257 7.07597 166.105 7.96667 167.565 9.75622V7.36473H172.803V23.2266C172.83 24.7125 172.532 26.1872 171.928 27.5532C171.423 28.722 170.618 29.7466 169.59 30.5304C167.659 32.019 165.378 32.7633 162.748 32.7633C161.293 32.7541 159.849 32.5311 158.464 32.1019C157.086 31.7004 155.792 31.065 154.642 30.2254L156.658 26.4039C158.38 27.6663 160.2 28.2975 162.12 28.2975C164.04 28.2975 165.559 27.8355 166.678 26.9114C167.81 25.9874 168.376 24.5224 168.376 22.5165ZM167.638 16.1132C167.638 14.6604 167.218 13.5167 166.378 12.6821C165.979 12.2757 165.496 11.9544 164.961 11.7388C164.426 11.5232 163.851 11.4182 163.272 11.4303C162.681 11.4219 162.094 11.5277 161.546 11.7413C160.998 11.955 160.499 12.2724 160.079 12.6748C159.183 13.5094 158.734 14.6482 158.734 16.0912C158.734 17.5342 159.171 18.7007 160.044 19.5906C160.449 20.0196 160.943 20.3605 161.493 20.5906C162.044 20.8208 162.639 20.9349 163.239 20.9254C163.83 20.9381 164.416 20.8269 164.958 20.5995C165.501 20.372 165.986 20.0337 166.381 19.6077C167.219 18.7275 167.638 17.5627 167.638 16.1132Z" fill="#366C7F"/>
<path d="M177.506 5.08308C177.217 4.80859 176.988 4.47943 176.834 4.11595C176.681 3.75247 176.606 3.36238 176.615 2.96979C176.603 2.57181 176.674 2.17559 176.823 1.80458C176.972 1.43356 177.196 1.09528 177.483 0.809748C177.769 0.524221 178.112 0.297247 178.49 0.142257C178.869 -0.0127328 179.276 -0.0925903 179.687 -0.0925903C180.098 -0.0925903 180.505 -0.0127328 180.884 0.142257C181.262 0.297247 181.605 0.524221 181.891 0.809748C182.178 1.09528 182.402 1.43356 182.551 1.80458C182.7 2.17559 182.771 2.57181 182.759 2.96979C182.756 3.55789 182.574 4.13202 182.236 4.62032C181.897 5.10862 181.418 5.4894 180.857 5.71498C180.296 5.94057 179.679 6.00094 179.083 5.88854C178.487 5.77614 177.939 5.49596 177.506 5.08308ZM182.306 25.5937H177.071V7.39891H182.306V25.5937Z" fill="#366C7F"/>
<path d="M195.573 21.3647C197.318 21.3647 198.89 20.5195 200.287 18.8292L203.396 22.2139C200.972 24.6542 198.353 25.8743 195.538 25.8743C192.723 25.8743 190.343 25.0121 188.398 23.2876C186.456 21.5648 185.485 19.3107 185.483 16.5256C185.481 13.7404 186.465 11.4742 188.433 9.72692C190.324 7.99893 192.835 7.05116 195.435 7.08408C196.843 7.09562 198.236 7.37158 199.536 7.8967C200.916 8.43433 202.16 9.25328 203.184 10.2979L200.461 13.7558C199.859 13.059 199.1 12.504 198.244 12.133C197.43 11.7629 196.543 11.5673 195.644 11.5596C194.334 11.5368 193.065 12.0025 192.099 12.8602C191.111 13.7274 190.617 14.9337 190.615 16.4792C190.613 18.0247 191.108 19.2253 192.099 20.0811C193.046 20.9223 194.289 21.3815 195.573 21.3647Z" fill="#366C7F"/>
<path fill-rule="evenodd" clip-rule="evenodd" d="M24.378 4.47056C32.7047 2.60618 39.7465 5.25633 40.132 10.3883C40.5175 15.5202 34.0627 21.189 25.736 23.0534C17.4093 24.9177 10.3675 22.2651 9.98452 17.1357C9.60157 12.0062 16.0538 6.3325 24.378 4.47056ZM9.79556 11.0008C6.44724 13.8242 4.12685 18.2069 4.14448 22.0772C4.20747 30.8623 15.0057 35.9869 28.2655 33.5246C39.1368 31.509 48.2899 25.0178 51.1923 17.9068C52.515 14.6661 52.9559 10.4175 52.1673 7.83327C54.1426 10.4883 54.9513 15.6032 54.2131 19.3026C52.3109 28.8344 41.0264 37.3779 27.351 39.0885C12.3024 40.9724 0.0554498 33.8712 -0.00249712 23.2266C-0.0478469 14.527 8.09747 6.29589 19.2107 2.35727C26.3759 -0.180634 34.7178 -0.505193 41.2431 3.57741C41.9179 3.96699 42.5517 4.4198 43.1352 4.92933L43.2511 5.02206C44.2015 5.8517 44.9636 6.86365 45.4888 7.9937C46.014 9.12374 46.291 10.3472 46.3021 11.5864C46.4004 19.0806 37.5924 26.8382 26.6304 28.9125C15.6684 30.9867 6.69415 26.6064 6.59589 19.1172C6.56062 16.3572 7.73971 13.5436 9.79556 11.0008Z" fill="#898989"/>
</g>
<defs>
<clipPath id="clip0_2759_3">
<rect width="203.708" height="39.3911" fill="white" transform="translate(0 -0.00738525)"/>
</clipPath>
</defs>
</svg>
