<svg width="187" height="37" viewBox="0 0 187 37" fill="none" xmlns="http://www.w3.org/2000/svg">
<g clip-path="url(#clip0_2782_2)">
<path d="M54.5584 33.2225C54.2521 33.0527 53.9069 32.9635 53.5559 32.9635C53.2048 32.9635 52.8596 33.0527 52.5533 33.2225C52.2601 33.3932 52.02 33.6406 51.8594 33.9377C51.6893 34.259 51.6003 34.6165 51.6003 34.9795C51.6003 35.3424 51.6893 35.6999 51.8594 36.0212C52.0208 36.3189 52.2606 36.5677 52.5533 36.741C52.8596 36.9108 53.2048 37 53.5559 37C53.9069 37 54.2521 36.9108 54.5584 36.741C54.8517 36.5683 55.0916 36.3194 55.2523 36.0212C55.4209 35.6994 55.509 35.3421 55.509 34.9795C55.509 34.6168 55.4209 34.2595 55.2523 33.9377C55.0928 33.6398 54.8525 33.3921 54.5584 33.2225ZM54.6949 35.7439C54.5924 35.9505 54.4318 36.1232 54.2323 36.2413C54.0281 36.3587 53.7954 36.4189 53.5593 36.4155C53.321 36.4189 53.0862 36.3587 52.8794 36.2413C52.6782 36.1254 52.517 35.952 52.4168 35.7439C52.307 35.5078 52.2502 35.2509 52.2502 34.9909C52.2502 34.7309 52.307 34.4741 52.4168 34.2379C52.517 34.0298 52.6782 33.8564 52.8794 33.7405C53.0864 33.6238 53.3212 33.5645 53.5593 33.5686C53.7952 33.5644 54.0279 33.6239 54.2323 33.7405C54.4318 33.8586 54.5924 34.0314 54.6949 34.2379C54.8047 34.4741 54.8615 34.7309 54.8615 34.9909C54.8615 35.2509 54.8047 35.5078 54.6949 35.7439Z" fill="white"/>
<path d="M56.7095 33.5274H57.8127V36.9564H58.4603V33.5274H59.5704V33.0139H56.7095V33.5274Z" fill="white"/>
<path d="M63.7357 33.2225C63.4293 33.0527 63.0841 32.9635 62.7331 32.9635C62.382 32.9635 62.0368 33.0527 61.7305 33.2225C61.4322 33.3912 61.1871 33.6388 61.0228 33.9377C60.8526 34.259 60.7637 34.6165 60.7637 34.9795C60.7637 35.3424 60.8526 35.6999 61.0228 36.0212C61.1881 36.3206 61.4328 36.5695 61.7305 36.741C62.0368 36.9108 62.382 37 62.7331 37C63.0841 37 63.4293 36.9108 63.7357 36.741C64.0286 36.5679 64.2684 36.3191 64.4295 36.0212C64.5982 35.6994 64.6862 35.3421 64.6862 34.9795C64.6862 34.6168 64.5982 34.2595 64.4295 33.9377C64.2695 33.6402 64.0293 33.3926 63.7357 33.2225ZM63.8698 35.7439C63.7681 35.951 63.6073 36.124 63.4072 36.2413C63.2029 36.3587 62.9703 36.4189 62.7342 36.4155C62.4959 36.4189 62.2611 36.3587 62.0543 36.2413C61.8544 36.1238 61.6936 35.9509 61.5917 35.7439C61.4819 35.5078 61.4251 35.2509 61.4251 34.9909C61.4251 34.7309 61.4819 34.4741 61.5917 34.2379C61.6936 34.031 61.8544 33.8581 62.0543 33.7405C62.2612 33.6238 62.4961 33.5645 62.7342 33.5686C62.9701 33.5644 63.2028 33.6239 63.4072 33.7405C63.6073 33.8579 63.7681 34.0308 63.8698 34.2379C63.9796 34.4741 64.0364 34.7309 64.0364 34.9909C64.0364 35.2509 63.9796 35.5078 63.8698 35.7439Z" fill="white"/>
<path d="M68.7128 34.9737C68.8931 34.7624 68.9864 34.4915 68.9742 34.215C68.9809 34.0535 68.953 33.8924 68.8924 33.7422C68.8318 33.5921 68.7399 33.4564 68.6226 33.344C68.3343 33.1052 67.9636 32.9868 67.5888 33.0139H66.1873V36.9565H66.8302V35.3817H67.2928L68.285 36.9565H69.0089L67.9681 35.3519C68.2528 35.3145 68.5158 35.1809 68.7128 34.9737ZM66.8302 34.9302V33.5549H67.5402C67.7524 33.5368 67.9633 33.6018 68.1277 33.736C68.1922 33.8033 68.2422 33.883 68.2748 33.97C68.3074 34.0571 68.3219 34.1498 68.3173 34.2425C68.3173 34.701 68.0583 34.9302 67.5402 34.9302H66.8302Z" fill="white"/>
<path d="M72.9267 34.9737C73.106 34.7619 73.1991 34.4913 73.188 34.215C73.1947 34.0535 73.1669 33.8924 73.1063 33.7422C73.0457 33.5921 72.9537 33.4564 72.8365 33.344C72.5478 33.1058 72.1773 32.9876 71.8027 33.0139H70.3965V36.9565H71.0371V35.3817H71.4997L72.4895 36.9565H73.2111L72.1681 35.3519C72.4574 35.3164 72.7254 35.1828 72.9267 34.9737ZM71.0418 34.9302V33.5549H71.7518C71.9646 33.5372 72.1761 33.6021 72.3415 33.736C72.4056 33.8035 72.4552 33.8832 72.4874 33.9703C72.5196 34.0573 72.5337 34.1499 72.5289 34.2425C72.5289 34.701 72.2698 34.9302 71.7518 34.9302H71.0418Z" fill="white"/>
<path d="M75.2579 33.0139H74.615V36.9541H75.2579V33.0139Z" fill="white"/>
<path d="M79.4533 35.9387L77.5198 33.0208H76.8792V36.9564H77.5198V34.0477L79.4533 36.9564H80.0939V33.0208H79.4533V35.9387Z" fill="white"/>
<path d="M84.5577 33.2225C84.2513 33.0527 83.9061 32.9635 83.5551 32.9635C83.204 32.9635 82.8589 33.0527 82.5525 33.2225C82.2546 33.3917 82.0096 33.6392 81.8448 33.9377C81.6746 34.259 81.5857 34.6165 81.5857 34.9795C81.5857 35.3424 81.6746 35.6999 81.8448 36.0212C82.0108 36.3201 82.2553 36.5688 82.5525 36.741C82.8589 36.9108 83.204 37 83.5551 37C83.9061 37 84.2513 36.9108 84.5577 36.741C84.8506 36.5679 85.0905 36.3191 85.2515 36.0212C85.4202 35.6994 85.5082 35.3421 85.5082 34.9795C85.5082 34.6168 85.4202 34.2595 85.2515 33.9377C85.0915 33.6402 84.8513 33.3926 84.5577 33.2225ZM84.6918 35.7439C84.5897 35.9507 84.4289 36.1236 84.2293 36.2413C84.0222 36.3561 83.7889 36.4164 83.5516 36.4164C83.3143 36.4164 83.081 36.3561 82.874 36.2413C82.6741 36.1238 82.5133 35.9509 82.4114 35.7439C82.3016 35.5078 82.2448 35.2509 82.2448 34.9909C82.2448 34.7309 82.3016 34.4741 82.4114 34.2379C82.5133 34.031 82.6741 33.8581 82.874 33.7405C83.0817 33.6278 83.3148 33.5687 83.5516 33.5687C83.7885 33.5687 84.0215 33.6278 84.2293 33.7405C84.4289 33.8583 84.5897 34.0311 84.6918 34.2379C84.8016 34.4741 84.8584 34.7309 84.8584 34.9909C84.8584 35.2509 84.8016 35.5078 84.6918 35.7439Z" fill="white"/>
<path d="M87.6521 33.0139H87.0115V36.9564H89.0282V36.459H87.6521V33.0139Z" fill="white"/>
<path d="M91.5377 33.0758L90.0737 36.9564H90.7676L91.0729 36.1015H92.7496L93.0549 36.9564H93.7487L92.2894 33.0758H91.5377ZM91.2463 35.6109L91.9055 33.7772L92.5623 35.6109H91.2463Z" fill="white"/>
<path d="M97.5855 34.9737C97.7648 34.7618 97.858 34.4913 97.8468 34.215C97.8535 34.0535 97.8257 33.8923 97.7651 33.7422C97.7045 33.5921 97.6126 33.4564 97.4953 33.344C97.2056 33.1083 96.8352 32.9925 96.4615 33.0208H95.0576V36.9633H95.7006V35.3817H96.1631L97.1553 36.9564H97.8746L96.8338 35.3519C97.1207 35.3149 97.386 35.1814 97.5855 34.9737ZM95.7006 34.9302V33.5549H96.4106C96.6228 33.5368 96.8337 33.6018 96.998 33.7359C97.0636 33.8026 97.1143 33.8821 97.1469 33.9693C97.1796 34.0566 97.1935 34.1496 97.1877 34.2425C97.1877 34.7009 96.9287 34.9302 96.4106 34.9302H95.7006Z" fill="white"/>
<path d="M99.9144 33.0139H99.2715V36.9541H99.9144V33.0139Z" fill="white"/>
<path d="M104.11 35.9387L102.179 33.0208H101.536V36.9564H102.179V34.0477L104.11 36.9564H104.753V33.0208H104.11V35.9387Z" fill="white"/>
<path d="M108.081 35.2878H109.54C109.507 35.6093 109.353 35.9068 109.11 36.1221C108.875 36.3239 108.572 36.4317 108.261 36.4247C108.013 36.431 107.767 36.3725 107.549 36.2551C107.343 36.1426 107.177 35.9707 107.073 35.7623C106.954 35.5205 106.896 35.2539 106.904 34.9852C106.898 34.7265 106.955 34.4701 107.07 34.238C107.174 34.0334 107.334 33.8624 107.533 33.7452C107.736 33.6294 107.967 33.57 108.201 33.5732C108.446 33.5686 108.687 33.6347 108.895 33.7635C109.087 33.8838 109.236 34.061 109.321 34.2701H109.996C109.907 33.8924 109.686 33.5584 109.371 33.328C109.025 33.0878 108.61 32.9662 108.187 32.9819C107.83 32.9747 107.477 33.0626 107.165 33.2363C106.873 33.402 106.636 33.648 106.483 33.9446C106.323 34.2686 106.24 34.6245 106.24 34.9852C106.24 35.3459 106.323 35.7018 106.483 36.0259C106.639 36.3255 106.88 36.5733 107.177 36.7387C107.489 36.9132 107.843 37.0019 108.201 36.9954C108.523 37.0021 108.841 36.9288 109.126 36.7823C109.385 36.6484 109.608 36.4541 109.774 36.2161C109.938 35.9799 110.045 35.7093 110.086 35.4253V34.8179H108.088L108.081 35.2878Z" fill="white"/>
<path d="M114.413 33.2225C114.107 33.0527 113.762 32.9635 113.411 32.9635C113.06 32.9635 112.715 33.0527 112.408 33.2225C112.115 33.3932 111.875 33.6406 111.714 33.9377C111.544 34.259 111.455 34.6165 111.455 34.9795C111.455 35.3424 111.544 35.6999 111.714 36.0212C111.876 36.3189 112.116 36.5677 112.408 36.741C112.715 36.9108 113.06 37 113.411 37C113.762 37 114.107 36.9108 114.413 36.741C114.71 36.5693 114.954 36.3204 115.119 36.0212C115.286 35.699 115.373 35.3418 115.373 34.9795C115.373 34.6171 115.286 34.2599 115.119 33.9377C114.955 33.6391 114.711 33.3915 114.413 33.2225ZM114.55 35.7439C114.447 35.9505 114.287 36.1232 114.087 36.2413C113.883 36.3587 113.65 36.4189 113.414 36.4155C113.175 36.4189 112.94 36.3588 112.732 36.2413C112.532 36.1238 112.371 35.9509 112.269 35.7439C112.162 35.5072 112.106 35.2505 112.106 34.9909C112.106 34.7313 112.162 34.4747 112.269 34.2379C112.371 34.031 112.532 33.8581 112.732 33.7405C112.94 33.6239 113.175 33.5645 113.414 33.5686C113.65 33.5644 113.883 33.6239 114.087 33.7405C114.287 33.8586 114.447 34.0314 114.55 34.2379C114.657 34.4747 114.713 34.7313 114.713 34.9909C114.713 35.2505 114.657 35.5072 114.55 35.7439Z" fill="white"/>
<path d="M117.51 33.0139H116.867V36.9564H118.884V36.459H117.51V33.0139Z" fill="white"/>
<path d="M123.07 33.2225C122.764 33.0527 122.419 32.9635 122.068 32.9635C121.716 32.9635 121.371 33.0527 121.065 33.2225C120.765 33.3905 120.518 33.6382 120.353 33.9377C120.182 34.259 120.094 34.6165 120.094 34.9795C120.094 35.3424 120.182 35.6999 120.353 36.0212C120.517 36.3204 120.761 36.5693 121.058 36.741C121.364 36.9108 121.71 37 122.061 37C122.412 37 122.757 36.9108 123.063 36.741C123.356 36.5677 123.596 36.3189 123.757 36.0212C123.926 35.6994 124.014 35.3421 124.014 34.9795C124.014 34.6168 123.926 34.2595 123.757 33.9377C123.598 33.6415 123.361 33.3942 123.07 33.2225ZM123.207 35.7439C123.104 35.9505 122.943 36.1232 122.744 36.2413C122.54 36.3587 122.307 36.4189 122.071 36.4155C121.832 36.4189 121.596 36.3588 121.389 36.2413C121.189 36.1238 121.028 35.9509 120.926 35.7439C120.819 35.5072 120.763 35.2505 120.763 34.9909C120.763 34.7313 120.819 34.4747 120.926 34.2379C121.028 34.031 121.189 33.8581 121.389 33.7405C121.597 33.6239 121.832 33.5645 122.071 33.5686C122.307 33.5644 122.54 33.6239 122.744 33.7405C122.943 33.8586 123.104 34.0314 123.207 34.2379C123.314 34.4747 123.37 34.7313 123.37 34.9909C123.37 35.2505 123.314 35.5072 123.207 35.7439Z" fill="white"/>
<path d="M127.231 35.2878H128.679C128.647 35.6094 128.494 35.9073 128.251 36.1221C128.015 36.3235 127.713 36.4313 127.402 36.4247C127.154 36.431 126.908 36.3725 126.69 36.2551C126.484 36.1426 126.318 35.9707 126.213 35.7623C126.095 35.5205 126.037 35.2539 126.044 34.9852C126.038 34.7267 126.095 34.4706 126.209 34.238C126.312 34.0335 126.473 33.8626 126.671 33.7452C126.874 33.6291 127.105 33.5697 127.34 33.5732C127.585 33.5686 127.826 33.6347 128.033 33.7635C128.225 33.8844 128.374 34.0614 128.459 34.2701H129.141C129.053 33.8924 128.831 33.5584 128.517 33.328C128.171 33.0878 127.755 32.9662 127.333 32.9819C126.975 32.9747 126.622 33.0626 126.31 33.2363C126.015 33.4011 125.774 33.6471 125.616 33.9446C125.458 34.2691 125.376 34.6248 125.376 34.9852C125.376 35.3456 125.458 35.7014 125.616 36.0259C125.774 36.3248 126.015 36.5723 126.31 36.7387C126.623 36.9132 126.976 37.0019 127.335 36.9954C127.656 37.0021 127.974 36.9288 128.26 36.7823C128.519 36.6484 128.741 36.4541 128.908 36.2161C129.072 35.9799 129.179 35.7093 129.22 35.4253V34.8179H127.222L127.231 35.2878Z" fill="white"/>
<path d="M131.366 33.0139H130.723V36.9541H131.366V33.0139Z" fill="white"/>
<path d="M134.153 33.0758L132.689 36.9564H133.383L133.686 36.1015H135.365L135.668 36.9564H136.362L134.905 33.0758H134.153ZM133.859 35.6109L134.518 33.7772L135.178 35.6109H133.859Z" fill="white"/>
<path d="M139.835 36.9564H142.111V36.4361H140.478V35.2144H141.942V34.7239H140.478V33.5274H142.111V33.0139H139.835V36.9564Z" fill="white"/>
<path d="M146.91 33.0758L145.444 36.9564H146.138L146.441 36.1015H148.106L148.409 36.9564H149.103L147.643 33.0758H146.91ZM146.616 35.6109L147.276 33.7772L147.935 35.6109H146.616Z" fill="white"/>
<path d="M152.817 35.3542C152.839 35.634 152.757 35.9122 152.586 36.1359C152.503 36.2227 152.402 36.2906 152.289 36.3349C152.177 36.3793 152.057 36.3989 151.936 36.3926C151.814 36.3992 151.693 36.3796 151.579 36.3353C151.466 36.291 151.363 36.223 151.279 36.1359C151.108 35.9122 151.026 35.634 151.048 35.3542V33.0208H150.405V35.3611C150.389 35.5825 150.418 35.8047 150.49 36.0149C150.562 36.2251 150.675 36.4189 150.823 36.5851C150.969 36.7257 151.142 36.8353 151.331 36.9071C151.521 36.9788 151.724 37.0112 151.927 37.0023C152.131 37.0112 152.336 36.9788 152.527 36.9071C152.719 36.8354 152.894 36.7258 153.041 36.5851C153.192 36.4199 153.306 36.2263 153.379 36.0159C153.452 35.8056 153.481 35.5829 153.465 35.3611V33.0208H152.822L152.817 35.3542Z" fill="white"/>
<path d="M157.507 33.25C157.158 33.081 156.772 32.9977 156.383 33.0071H155.044V36.9496H156.374C156.763 36.9595 157.149 36.8753 157.498 36.7043C157.8 36.5502 158.048 36.3109 158.213 36.0167C158.381 35.6957 158.466 35.3378 158.458 34.976C158.466 34.6149 158.382 34.2576 158.213 33.9377C158.052 33.6439 157.806 33.4044 157.507 33.25ZM157.431 36.0006C157.128 36.2628 156.733 36.3955 156.332 36.3697H155.696V33.5778H156.332C156.733 33.552 157.128 33.6847 157.431 33.9468C157.676 34.2358 157.81 34.601 157.81 34.9783C157.81 35.3556 157.676 35.7208 157.431 36.0098V36.0006Z" fill="white"/>
<path d="M160.604 33.0139H159.961V36.9541H160.604V33.0139Z" fill="white"/>
<path d="M165.065 33.2225C164.759 33.0527 164.414 32.9635 164.063 32.9635C163.712 32.9635 163.367 33.0527 163.06 33.2225C162.762 33.3917 162.517 33.6392 162.353 33.9377C162.182 34.259 162.094 34.6165 162.094 34.9795C162.094 35.3424 162.182 35.6999 162.353 36.0212C162.519 36.3201 162.763 36.5688 163.06 36.741C163.367 36.9108 163.712 37 164.063 37C164.414 37 164.759 36.9108 165.065 36.741C165.358 36.5679 165.598 36.3191 165.759 36.0212C165.928 35.6994 166.016 35.3421 166.016 34.9795C166.016 34.6168 165.928 34.2595 165.759 33.9377C165.599 33.6402 165.359 33.3926 165.065 33.2225ZM165.2 35.7439C165.097 35.9507 164.937 36.1236 164.737 36.2413C164.53 36.3561 164.297 36.4164 164.059 36.4164C163.822 36.4164 163.589 36.3561 163.382 36.2413C163.182 36.1238 163.021 35.9509 162.919 35.7439C162.809 35.5078 162.753 35.2509 162.753 34.9909C162.753 34.7309 162.809 34.4741 162.919 34.2379C163.021 34.031 163.182 33.8581 163.382 33.7405C163.59 33.6278 163.823 33.5687 164.059 33.5687C164.296 33.5687 164.529 33.6278 164.737 33.7405C164.937 33.8583 165.097 34.0311 165.2 34.2379C165.309 34.4741 165.366 34.7309 165.366 34.9909C165.366 35.2509 165.309 35.5078 165.2 35.7439Z" fill="white"/>
<path d="M168.16 33.0139H167.52V36.9564H169.536V36.459H168.16V33.0139Z" fill="white"/>
<path d="M173.722 33.2225C173.416 33.0527 173.071 32.9635 172.72 32.9635C172.369 32.9635 172.024 33.0527 171.717 33.2225C171.417 33.3907 171.169 33.6383 171.002 33.9377C170.832 34.259 170.743 34.6165 170.743 34.9795C170.743 35.3424 170.832 35.6999 171.002 36.0212C171.168 36.3201 171.413 36.5688 171.71 36.741C172.017 36.9108 172.362 37 172.713 37C173.064 37 173.409 36.9108 173.715 36.741C174.008 36.5679 174.248 36.3191 174.409 36.0212C174.578 35.6994 174.666 35.3421 174.666 34.9795C174.666 34.6168 174.578 34.2595 174.409 33.9377C174.251 33.6411 174.013 33.3936 173.722 33.2225ZM173.856 35.7439C173.755 35.951 173.594 36.124 173.394 36.2413C173.19 36.3587 172.957 36.4189 172.721 36.4155C172.483 36.4189 172.248 36.3587 172.041 36.2413C171.841 36.1238 171.68 35.9509 171.578 35.7439C171.469 35.5078 171.412 35.2509 171.412 34.9909C171.412 34.7309 171.469 34.4741 171.578 34.2379C171.68 34.031 171.841 33.8581 172.041 33.7405C172.248 33.6238 172.483 33.5645 172.721 33.5686C172.957 33.5644 173.189 33.6239 173.394 33.7405C173.594 33.8579 173.755 34.0308 173.856 34.2379C173.966 34.4741 174.023 34.7309 174.023 34.9909C174.023 35.2509 173.966 35.5078 173.856 35.7439Z" fill="white"/>
<path d="M182.018 33.0139H181.375V36.9541H182.018V33.0139Z" fill="white"/>
<path d="M185.541 33.0758H184.803L183.339 36.9564H184.033L184.338 36.1015H186.015L186.32 36.9564H187.014L185.541 33.0758ZM184.511 35.6109L185.171 33.7772L185.827 35.6109H184.511Z" fill="white"/>
<path d="M73.1904 20.9801C70.927 23.173 68.1385 24.2694 64.8251 24.2694C61.5116 24.2694 58.7232 23.173 56.4597 20.9801C54.1947 18.7888 53.0623 16.0627 53.0623 12.8017C53.0623 9.54073 54.1947 6.81383 56.4597 4.621C58.7232 2.4297 61.5116 1.33405 64.8251 1.33405C68.1385 1.33405 70.927 2.4297 73.1904 4.621C75.4554 6.81383 76.5879 9.54073 76.5879 12.8017C76.5879 16.0627 75.4554 18.7888 73.1904 20.9801ZM71.4928 12.8178C71.5335 10.9459 70.8443 9.13068 69.5686 7.74979C68.9735 7.09083 68.2449 6.56367 67.4304 6.20276C66.6158 5.84185 65.7335 5.65531 64.8413 5.65531C63.949 5.65531 63.0667 5.84185 62.2522 6.20276C61.4376 6.56367 60.709 7.09083 60.1139 7.74979C58.8389 9.13091 58.1505 10.9462 58.192 12.8178C58.1503 14.6818 58.8392 16.4893 60.1139 17.8605C60.7113 18.5156 61.4407 19.0393 62.255 19.3977C63.0692 19.7562 63.9503 19.9414 64.8413 19.9414C65.7322 19.9414 66.6133 19.7562 67.4276 19.3977C68.2418 19.0393 68.9712 18.5156 69.5686 17.8605C70.8439 16.4895 71.5336 14.6821 71.4928 12.8178Z" fill="white"/>
<path d="M85.2423 10.3881V18.0416C85.208 18.6015 85.3908 19.1534 85.7534 19.5842C85.9042 19.7583 86.0912 19.898 86.3016 19.9938C86.5119 20.0895 86.7407 20.139 86.9722 20.1389C87.8696 20.1389 88.6282 19.7362 89.248 18.9309L91.0427 22.2683C89.5471 23.6222 87.9714 24.2992 86.3154 24.2992C85.5422 24.3173 84.7731 24.1836 84.0523 23.9059C83.3314 23.6282 82.6732 23.2118 82.1154 22.6809C80.9729 21.602 80.4016 20.1297 80.4016 18.2639V10.3881H78.3826V6.94981H80.4016V1.84747H85.2423V6.95669H89.4053V10.3949L85.2423 10.3881Z" fill="white"/>
<path d="M110.017 15.5019C110.043 16.666 109.825 17.8229 109.378 18.8998C108.931 19.9766 108.264 20.9503 107.419 21.7595C105.69 23.4602 103.515 24.3106 100.897 24.3106C98.2794 24.3106 96.1053 23.4641 94.3754 21.7709C93.5313 20.9613 92.8651 19.9875 92.4185 18.9107C91.972 17.8339 91.7548 16.6773 91.7804 15.5133C91.7543 14.3452 91.9712 13.1843 92.4176 12.103C92.8641 11.0217 93.5305 10.0431 94.3754 9.22823C96.1053 7.51675 98.2794 6.66101 100.897 6.66101C103.515 6.66101 105.69 7.51369 107.419 9.21906C108.265 10.0332 108.932 11.0113 109.379 12.0923C109.825 13.1733 110.043 14.3339 110.017 15.5019ZM96.6188 15.5019C96.6188 16.9001 97.0197 18.0385 97.8214 18.9172C98.2163 19.3332 98.6929 19.6647 99.2219 19.8913C99.7509 20.1179 100.321 20.2348 100.897 20.2348C101.474 20.2348 102.044 20.1179 102.573 19.8913C103.102 19.6647 103.579 19.3332 103.973 18.9172C104.775 18.037 105.176 16.8985 105.176 15.5019C105.176 14.1052 104.775 12.9591 103.973 12.0636C103.581 11.6431 103.106 11.3075 102.576 11.078C102.047 10.8484 101.475 10.7299 100.897 10.7299C100.32 10.7299 99.7481 10.8484 99.2187 11.078C98.6893 11.3075 98.2136 11.6431 97.8214 12.0636C97.0197 12.9576 96.6188 14.1036 96.6188 15.5019Z" fill="white"/>
<path d="M177.881 35.2878H179.34C179.307 35.609 179.155 35.9066 178.912 36.1221C178.676 36.3238 178.373 36.4316 178.061 36.4247C177.813 36.4307 177.567 36.3722 177.349 36.2551C177.144 36.1415 176.978 35.9699 176.872 35.7623C176.755 35.5201 176.697 35.2538 176.704 34.9852C176.697 34.7265 176.755 34.4701 176.87 34.238C176.974 34.0335 177.134 33.8626 177.333 33.7452C177.535 33.629 177.765 33.5696 177.999 33.5732C178.244 33.5693 178.485 33.6353 178.693 33.7635C178.884 33.8838 179.032 34.0611 179.116 34.2701H179.793C179.705 33.8918 179.483 33.5576 179.167 33.328C178.822 33.0875 178.406 32.9659 177.985 32.9819C177.627 32.9745 177.274 33.0623 176.963 33.2363C176.667 33.4005 176.426 33.6466 176.269 33.9446C176.109 34.2686 176.026 34.6245 176.026 34.9852C176.026 35.3459 176.109 35.7018 176.269 36.0258C176.426 36.3245 176.667 36.5719 176.963 36.7387C177.275 36.9132 177.629 37.0019 177.987 36.9954C178.309 37.0017 178.627 36.9284 178.912 36.7823C179.171 36.6484 179.393 36.4541 179.56 36.2161C179.722 35.9789 179.829 35.7087 179.872 35.4253V34.8179H177.871L177.881 35.2878Z" fill="white"/>
<path d="M117.739 24.047H112.933V0.472168H117.739V24.047Z" fill="white"/>
<path d="M138.894 15.5019C138.919 16.6659 138.702 17.8226 138.255 18.8994C137.808 19.9762 137.141 20.9499 136.297 21.7595C134.567 23.4602 132.393 24.3106 129.775 24.3106C127.157 24.3106 124.983 23.4641 123.253 21.7709C122.408 20.9614 121.742 19.9877 121.295 18.9109C120.848 17.8341 120.63 16.6774 120.656 15.5133C120.63 14.3451 120.847 13.1841 121.294 12.1028C121.741 11.0215 122.408 10.0429 123.253 9.22823C124.983 7.51675 127.157 6.66101 129.775 6.66101C132.393 6.66101 134.567 7.51369 136.297 9.21906C137.142 10.0335 137.808 11.0117 138.255 12.0926C138.702 13.1735 138.92 14.334 138.894 15.5019ZM125.496 15.5019C125.496 16.9001 125.897 18.0385 126.699 18.9172C127.094 19.3332 127.57 19.6647 128.099 19.8913C128.628 20.1179 129.199 20.2348 129.775 20.2348C130.351 20.2348 130.921 20.1179 131.45 19.8913C131.979 19.6647 132.456 19.3332 132.851 18.9172C133.654 18.037 134.055 16.8985 134.054 15.5019C134.052 14.1052 133.651 12.9591 132.851 12.0636C132.459 11.6431 131.983 11.3075 131.454 11.078C130.924 10.8484 130.353 10.7299 129.775 10.7299C129.197 10.7299 128.626 10.8484 128.096 11.078C127.567 11.3075 127.091 11.6431 126.699 12.0636C125.897 12.9576 125.496 14.1036 125.496 15.5019Z" fill="white"/>
<path d="M154.566 21.1566C153.866 21.9602 152.996 22.6014 152.019 23.0347C151.041 23.4681 149.979 23.683 148.909 23.6642C147.852 23.6879 146.801 23.4988 145.821 23.1083C144.84 22.7179 143.949 22.1342 143.203 21.3927C141.661 19.8799 140.89 17.8582 140.89 15.3276C140.89 12.7971 141.686 10.7212 143.277 9.09986C144.862 7.48159 146.681 6.66864 148.733 6.661C150.785 6.65336 152.481 7.49 153.821 9.17091V6.9246H158.629V21.8236C158.655 23.2193 158.381 24.6045 157.827 25.8876C157.363 26.9854 156.624 27.9478 155.68 28.684C153.907 30.0823 151.813 30.7814 149.399 30.7814C148.064 30.7728 146.738 30.5633 145.467 30.1602C144.202 29.783 143.014 29.1862 141.959 28.3975L143.809 24.808C145.389 25.9938 147.061 26.5867 148.823 26.5867C150.585 26.5867 151.98 26.1527 153.007 25.2848C154.046 24.4168 154.566 23.0408 154.566 21.1566ZM153.888 15.142C153.888 13.7774 153.503 12.7031 152.732 11.9192C152.365 11.5374 151.922 11.2356 151.431 11.0332C150.94 10.8307 150.412 10.732 149.88 10.7433C149.338 10.7355 148.799 10.8348 148.296 11.0355C147.793 11.2363 147.335 11.5343 146.95 11.9123C146.126 12.6963 145.715 13.7659 145.715 15.1214C145.715 16.4768 146.115 17.5724 146.917 18.4083C147.289 18.8113 147.742 19.1315 148.248 19.3477C148.753 19.5638 149.299 19.671 149.85 19.6621C150.392 19.674 150.931 19.5696 151.429 19.3559C151.926 19.1423 152.372 18.8245 152.734 18.4244C153.503 17.5976 153.888 16.5035 153.888 15.142Z" fill="white"/>
<path d="M162.947 4.78141C162.681 4.52359 162.471 4.21441 162.33 3.873C162.189 3.53158 162.121 3.16517 162.128 2.79641C162.118 2.42259 162.183 2.05042 162.319 1.70192C162.456 1.35343 162.662 1.03568 162.925 0.767486C163.188 0.499291 163.503 0.286095 163.85 0.140513C164.198 -0.00506818 164.571 -0.0800781 164.949 -0.0800781C165.326 -0.0800781 165.7 -0.00506818 166.047 0.140513C166.395 0.286095 166.709 0.499291 166.972 0.767486C167.235 1.03568 167.441 1.35343 167.578 1.70192C167.715 2.05042 167.78 2.42259 167.769 2.79641C167.766 3.34881 167.599 3.88809 167.288 4.34675C166.978 4.80541 166.538 5.16307 166.023 5.37496C165.508 5.58685 164.942 5.64356 164.395 5.53798C163.848 5.4324 163.344 5.16923 162.947 4.78141ZM167.353 24.047H162.547V6.95667H167.353V24.047Z" fill="white"/>
<path d="M179.532 20.0747C181.134 20.0747 182.576 19.2809 183.859 17.6931L186.713 20.8724C184.488 23.1645 182.084 24.3106 179.5 24.3106C176.915 24.3106 174.731 23.5007 172.945 21.8809C171.163 20.2627 170.271 18.1455 170.269 15.5294C170.268 12.9132 171.17 10.7846 172.978 9.1434C174.714 7.52031 177.018 6.63007 179.405 6.661C180.698 6.67183 181.976 6.93105 183.17 7.42429C184.437 7.92928 185.579 8.69852 186.519 9.67977L184.019 12.9278C183.466 12.2732 182.77 11.7519 181.984 11.4035C181.236 11.0558 180.422 10.8721 179.597 10.8648C178.394 10.8435 177.229 11.2808 176.343 12.0865C175.436 12.901 174.982 14.0341 174.98 15.4858C174.979 16.9375 175.433 18.0652 176.343 18.869C177.212 19.6592 178.353 20.0905 179.532 20.0747Z" fill="white"/>
<path fill-rule="evenodd" clip-rule="evenodd" d="M22.3785 4.20612C30.0223 2.45491 36.4865 4.94419 36.8404 9.7646C37.1942 14.585 31.2689 19.9097 23.6251 21.6609C15.9814 23.4121 9.51714 20.9205 9.1656 16.1024C8.81406 11.2843 14.7371 5.95503 22.3785 4.20612ZM8.99214 10.3399C5.91845 12.992 3.78838 17.1087 3.80457 20.744C3.86239 28.9958 13.775 33.8093 25.9471 31.4965C35.9268 29.6032 44.3291 23.5061 46.9935 16.8267C48.2077 13.7827 48.6124 9.7921 47.8885 7.36471C49.7017 9.85858 50.4441 14.6629 49.7665 18.1378C48.0203 27.091 37.6614 35.1159 25.1076 36.7227C11.2934 38.4922 0.0509256 31.822 -0.00226843 21.8236C-0.0438985 13.6521 7.43333 5.92065 17.635 2.22111C24.2126 -0.162734 31.8702 -0.467591 37.8603 3.36719C38.4798 3.73312 39.0616 4.15844 39.5972 4.63704L39.7036 4.72414C40.5761 5.50342 41.2756 6.45394 41.7578 7.51539C42.2399 8.57684 42.4941 9.72604 42.5044 10.89C42.5946 17.9293 34.5091 25.216 24.4462 27.1644C14.3832 29.1127 6.14511 24.9983 6.05491 17.9636C6.02253 15.3712 7.10491 12.7284 8.99214 10.3399Z" fill="white"/>
</g>
<defs>
<clipPath id="clip0_2782_2">
<rect width="187" height="37" fill="white"/>
</clipPath>
</defs>
</svg>
