<svg width="50" height="53" viewBox="0 0 50 53" fill="none" xmlns="http://www.w3.org/2000/svg">
<g clip-path="url(#clip0_2799_1177)">
<path d="M31.1006 10.5972C35.0648 10.5972 39.0643 12.9706 39.0643 18.2727C39.0819 18.7728 39.294 19.2465 39.6561 19.5942C40.0182 19.9418 40.5018 20.136 41.0052 20.136C41.5085 20.136 41.9922 19.9418 42.3543 19.5942C42.7163 19.2465 42.9285 18.7728 42.946 18.2727C42.946 10.7003 36.988 6.73832 31.103 6.73832C28.1196 6.70046 25.2202 7.72049 22.9248 9.61547C20.4195 11.7452 19.095 14.7395 19.095 18.2727V22.0214C19.0944 22.3756 19.192 22.7232 19.377 23.0259C19.5621 23.3286 19.8274 23.5748 20.1439 23.7375C20.4605 23.9001 20.816 23.973 21.1714 23.948C21.5268 23.923 21.8685 23.8012 22.1588 23.5959C23.2006 22.8625 25.3264 21.7895 26.5991 22.0238C26.7472 22.0433 26.8891 22.0955 27.0143 22.1766C27.1395 22.2576 27.2448 22.3655 27.3226 22.4924C27.4701 22.6795 27.5706 22.8989 27.6157 23.1324C27.6608 23.3659 27.6492 23.6067 27.5819 23.8349C27.0705 25.6788 23.7238 27.9608 21.5107 28.9894C21.1109 29.1758 20.7869 29.4922 20.5922 29.8863C20.3976 30.2804 20.3439 30.7288 20.44 31.1573C20.5361 31.5858 20.7762 31.969 21.1209 32.2436C21.4655 32.5182 21.8939 32.6678 22.3356 32.6678C22.6193 32.6683 22.8995 32.6059 23.1558 32.4851C23.8628 32.1547 30.1296 29.1417 31.3222 24.8587C31.5394 24.0928 31.5818 23.2883 31.4464 22.504C31.3111 21.7197 31.0013 20.9753 30.5397 20.3251C30.1699 19.7721 29.6906 19.2999 29.1309 18.9373C28.5713 18.5747 27.9432 18.3294 27.2849 18.2165C26.0311 17.9822 24.5817 18.1883 22.9743 18.8116V18.2727C22.9743 13.0034 27.1859 10.5972 31.1006 10.5972Z" fill="white"/>
<path d="M31.2089 0C26.2785 0 21.652 1.62367 18.1757 4.56876C14.228 7.92856 12.1399 12.666 12.1399 18.2727C12.1574 18.7728 12.3696 19.2466 12.7316 19.5942C13.0937 19.9418 13.5774 20.1361 14.0807 20.1361C14.5841 20.1361 15.0678 19.9418 15.4298 19.5942C15.7919 19.2466 16.004 18.7728 16.0216 18.2727C16.0216 8.36904 23.8957 3.86588 31.2113 3.86588C35.1755 3.86588 38.8403 5.14279 41.5318 7.45763C44.5344 10.0349 46.1206 13.7836 46.1206 18.2797C46.1206 25.9014 42.8069 28.42 39.2858 31.091C36.3256 33.3449 32.9695 35.8964 31.9631 41.3321C31.3009 44.8981 29.4885 49.1505 24.5981 49.1505C20.3558 49.1505 17.6148 46.2171 17.6148 41.6812C17.6239 41.4221 17.5804 41.1639 17.4869 40.922C17.3935 40.68 17.252 40.4592 17.0709 40.2728C16.8898 40.0863 16.6727 39.9381 16.4327 39.8368C16.1927 39.7355 15.9347 39.6833 15.6739 39.6833C15.4132 39.6833 15.1552 39.7355 14.9152 39.8368C14.6752 39.9381 14.4581 40.0863 14.277 40.2728C14.0959 40.4592 13.9544 40.68 13.861 40.922C13.7675 41.1639 13.724 41.4221 13.7331 41.6812C13.7331 48.3492 18.2111 53.0094 24.5981 53.0094C30.4123 53.0094 34.4967 49.0076 35.7788 42.0326C36.5165 38.0496 38.8945 36.2502 41.6473 34.1556C45.5667 31.1754 49.9928 27.8039 49.9928 18.2727C49.9928 5.71915 40.2591 0 31.2089 0Z" fill="white"/>
<path d="M3.31379 21.7637C3.13409 21.5851 2.92055 21.4436 2.68551 21.3475C2.45048 21.2514 2.19862 21.2025 1.94448 21.2038C1.56302 21.2055 1.19056 21.3191 0.873678 21.5302C0.5568 21.7413 0.309576 22.0406 0.162932 22.3907C0.0162876 22.7408 -0.0232667 23.1261 0.0492171 23.4984C0.121701 23.8707 0.303005 24.2135 0.570449 24.4839C1.31159 25.2186 1.89913 26.0918 2.29918 27.0533C2.69923 28.0147 2.90389 29.0454 2.90135 30.0859C2.90371 31.126 2.69896 32.1563 2.29891 33.1173C1.89886 34.0784 1.31142 34.9513 0.570449 35.6856C0.390009 35.8656 0.246998 36.0791 0.149581 36.3141C0.0521649 36.549 0.0022507 36.8007 0.0026884 37.0548C0.0031261 37.3089 0.0539073 37.5605 0.152133 37.7951C0.250358 38.0297 0.394103 38.2428 0.575162 38.4221C0.756221 38.6015 0.971047 38.7437 1.20738 38.8405C1.4437 38.9374 1.69691 38.987 1.95252 38.9866C2.20814 38.9861 2.46117 38.9356 2.69716 38.838C2.93316 38.7403 3.14749 38.5974 3.32793 38.4175C4.42946 37.3258 5.3027 36.0282 5.89733 34.5995C6.49195 33.1708 6.79617 31.6391 6.79246 30.0929C6.79494 28.545 6.48879 27.0119 5.8917 25.5822C5.29462 24.1526 4.41843 22.8547 3.31379 21.7637Z" fill="white"/>
<path d="M5.10726 16.1993C4.74328 16.5613 4.53882 17.0522 4.53882 17.564C4.53882 18.0759 4.74328 18.5668 5.10726 18.9288C6.59848 20.4061 7.78068 22.1624 8.58566 24.0962C9.39063 26.03 9.80244 28.1032 9.79733 30.1961C9.80169 32.2881 9.38952 34.3604 8.58457 36.2933C7.77962 38.2263 6.59781 39.9818 5.10726 41.4587C4.7656 41.825 4.58007 42.3087 4.58967 42.8081C4.59926 43.3076 4.80323 43.7839 5.15871 44.137C5.51419 44.4901 5.9935 44.6924 6.49592 44.7016C6.99835 44.7107 7.48476 44.5258 7.85296 44.1859C9.70371 42.3511 11.1709 40.1704 12.17 37.7693C13.1691 35.3683 13.6804 32.7944 13.6743 30.1961C13.6813 27.5967 13.1703 25.0216 12.1708 22.6197C11.1712 20.2177 9.70287 18.0363 7.8506 16.2016C7.48623 15.8413 6.99333 15.6389 6.47941 15.6384C5.96549 15.638 5.47225 15.8396 5.10726 16.1993Z" fill="white"/>
</g>
<defs>
<clipPath id="clip0_2799_1177">
<rect width="50" height="53" fill="white"/>
</clipPath>
</defs>
</svg>
